<svg width="24" height="24" viewBox="0 0 24 24" fill="none" xmlns="http://www.w3.org/2000/svg">
<path d="M12.2674 21C7.15682 21 3 16.9606 3 12C3 7.03941 7.15682 3 12.2674 3C15.8178 3 19.098 5.01177 20.6306 8.11942L21 8.86591L18.4089 11.3806L16.6833 9.72883L18.0285 8.42117C16.7825 6.53118 14.6049 5.34529 12.2674 5.34529C8.50197 5.34529 5.43675 8.3312 5.43675 11.9947C5.43675 15.6583 8.50197 18.6441 12.2674 18.6441C14.6049 18.6441 16.7825 17.4583 18.0285 15.5682L13.3039 10.9729C13.0282 10.7029 12.6588 10.5547 12.2674 10.5547C11.876 10.5547 11.5121 10.7029 11.2309 10.9729C10.652 11.5341 10.652 12.4447 11.2309 13.0059C11.5066 13.2759 11.876 13.4241 12.2674 13.4241C12.6588 13.4241 13.0227 13.2759 13.3039 13.0059L13.7228 12.593L15.4539 14.2447L15.0294 14.6577C14.2907 15.3776 13.3093 15.7694 12.2674 15.7694C11.2254 15.7694 10.2441 15.3724 9.50539 14.6577C7.98928 13.1859 7.98928 10.7876 9.50539 9.31588C10.2441 8.6012 11.2199 8.2041 12.2674 8.2041C13.3093 8.2041 14.2907 8.6012 15.0294 9.31588L21 15.1182L20.6306 15.8647C19.098 18.9882 15.8122 21 12.2674 21Z" fill="#0EAD98"/>
</svg>
