<svg xmlns="http://www.w3.org/2000/svg" width="24" height="24" fill="none" viewBox="0 0 24 24" class="web3icons">
    <path fill="#30A1F5" fill-rule="evenodd" d="M15.081 5H8.915c-.82 0-1.23 0-1.602.105a2.7 2.7 0 0 0-.897.452c-.298.231-.518.55-.964 1.185l-1.956 2.81c-.294.42-.44.63-.48.852a1 1 0 0 0 .067.579c.09.21.282.386.665.74l7.282 6.71c.34.313.51.47.704.528a.93.93 0 0 0 .53 0c.197-.059.367-.215.706-.528l7.281-6.71c.384-.354.576-.53.666-.74a1 1 0 0 0 .067-.579c-.04-.221-.186-.432-.48-.852l-1.961-2.81c-.444-.636-.667-.955-.964-1.184a2.7 2.7 0 0 0-.896-.452c-.372-.105-.782-.105-1.603-.105m-1.166 2.216a.3.3 0 0 1 .113-.136.33.33 0 0 1 .356 0 .3.3 0 0 1 .114.136l.692 1.724c.042.104.13.185.243.223l1.87.638q.091.031.148.105a.27.27 0 0 1 0 .328.3.3 0 0 1-.148.105l-1.87.638a.4.4 0 0 0-.148.088.4.4 0 0 0-.095.136l-.692 1.724a.3.3 0 0 1-.114.136.33.33 0 0 1-.356 0 .3.3 0 0 1-.113-.136l-.693-1.724a.4.4 0 0 0-.095-.136.4.4 0 0 0-.147-.088l-1.87-.638a.3.3 0 0 1-.148-.105.27.27 0 0 1 0-.328.3.3 0 0 1 .147-.105l1.87-.638a.4.4 0 0 0 .148-.087.4.4 0 0 0 .095-.136z" clip-rule="evenodd"/>
</svg>
