<svg xmlns="http://www.w3.org/2000/svg" width="24" height="24" fill="none" viewBox="0 0 24 24" class="web3icons">
    <path fill="#0EAD98" d="M12.267 21C7.157 21 3 16.96 3 12s4.157-9 9.267-9c3.55 0 6.831 2.012 8.364 5.12l.369.746-2.591 2.515-1.726-1.652L18.03 8.42c-1.247-1.89-3.424-3.076-5.762-3.076-3.765 0-6.83 2.986-6.83 6.65 0 3.663 3.065 6.65 6.83 6.65 2.338 0 4.515-1.187 5.762-3.077l-4.725-4.595a1.47 1.47 0 0 0-1.037-.418c-.391 0-.755.148-1.036.418a1.407 1.407 0 0 0 0 2.033c.276.27.645.418 1.036.418.392 0 .756-.148 1.037-.418l.419-.413 1.73 1.652-.424.413a3.93 3.93 0 0 1-2.762 1.111 3.95 3.95 0 0 1-2.762-1.111 3.705 3.705 0 0 1 0-5.342 3.94 3.94 0 0 1 2.762-1.112 3.95 3.95 0 0 1 2.762 1.112L21 15.118l-.37.747C19.099 18.988 15.813 21 12.268 21"/>
</svg>
