<svg xmlns="http://www.w3.org/2000/svg" width="24" height="24" fill="none" viewBox="0 0 24 24" class="web3icons">
    <g clip-path="url(#coinex__a)">
        <path fill="#0EAD98" d="M24 0H0v24h24z"/>
        <path fill="#fff" d="M12.238 20C7.695 20 4 16.41 4 12s3.695-8 8.238-8c3.156 0 6.071 1.788 7.434 4.55l.328.664-2.303 2.235-1.534-1.468 1.196-1.162c-1.108-1.68-3.044-2.734-5.121-2.734-3.347 0-6.072 2.654-6.072 5.91s2.725 5.91 6.072 5.91c2.078 0 4.013-1.053 5.12-2.733l-4.199-4.085a1.3 1.3 0 0 0-.921-.372 1.32 1.32 0 0 0-.922.372 1.25 1.25 0 0 0 0 1.807c.245.24.574.372.922.372s.671-.132.921-.372l.372-.367 1.54 1.468-.378.367a3.5 3.5 0 0 1-2.455.989 3.5 3.5 0 0 1-2.455-.989 3.294 3.294 0 0 1 0-4.748 3.5 3.5 0 0 1 2.455-.988c.926 0 1.798.353 2.455.988L20 14.772l-.328.663C18.309 18.212 15.389 20 12.238 20"/>
    </g>
    <defs>
        <clipPath id="coinex__a">
            <path fill="#fff" d="M0 0h24v24H0z"/>
        </clipPath>
    </defs>
</svg>
