<svg width="24" height="24" viewBox="0 0 24 24" fill="none" xmlns="http://www.w3.org/2000/svg">
<g clip-path="url(#clip0_738_45)">
<path d="M24 0H0V24H24V0Z" fill="black"/>
<path d="M19.9983 6.7132V4.5H4V6.7132H11.1205C9.77667 7.544 8.57588 8.58475 7.55942 9.7885H4V12.0017H6.00541C4.73221 14.208 4 16.7699 4 19.5H6.19831C6.19831 16.6988 7.0994 14.1074 8.6224 12H12.7779C10.6278 13.7831 9.25297 16.4837 9.25297 19.5H11.4513C11.4513 15.3631 14.7936 12 18.9008 12H20V9.78672H10.6536C12.8744 7.87186 15.7549 6.71142 18.9008 6.71142H20L19.9983 6.7132Z" fill="white"/>
</g>
<defs>
<clipPath id="clip0_738_45">
<rect width="24" height="24" fill="white"/>
</clipPath>
</defs>
</svg>
