<svg width="24" height="24" viewBox="0 0 24 24" fill="none" xmlns="http://www.w3.org/2000/svg">
<g clip-path="url(#clip0_738_71)">
<path d="M24 0H0V24H24V0Z" fill="#CCFF00"/>
<path d="M5.59658 20H5.96685C6.03417 20 6.10149 19.9679 6.12393 19.9144C8.91771 13.1304 11.9583 9.77043 13.8657 7.75876C13.9443 7.67316 13.9106 7.60896 13.7984 7.60896H10.3875C10.2641 7.60896 10.1598 7.65604 10.0734 7.75876L7.62741 10.6479C7.26837 11.0759 7.17861 11.4718 7.17861 12.0389V14.9922C6.38199 17.1216 5.87709 18.5661 5.50682 19.8716C5.48438 19.9551 5.51804 20 5.59658 20ZM17.9049 4.43094C17.3776 3.89592 14.999 3.87452 13.8994 4.28114C13.6705 4.36567 13.4506 4.50905 13.3496 4.59145C12.3398 5.41538 11.6666 6.0681 11.0271 6.71012C10.9485 6.78503 10.9822 6.85993 11.0944 6.85993H14.8755C15.2234 6.85993 15.4253 7.05254 15.4253 7.38425V11.4504C15.4253 11.5574 15.5151 11.5895 15.5824 11.4932L17.8601 8.65759C18.2303 8.19748 18.3425 8.05837 18.4435 7.41635C18.5781 6.47472 18.4996 5.03016 17.9049 4.43094ZM13.0242 15.2169L14.5838 12.7665C14.6175 12.7023 14.6287 12.6274 14.6287 12.5739V8.48639C14.6287 8.37938 14.5502 8.33658 14.4716 8.42219C12.1266 10.9154 10.2978 13.537 8.60355 16.6936C8.56091 16.7728 8.61477 16.8434 8.71575 16.8113L12.2164 15.784C12.6113 15.6685 12.8335 15.5165 13.0242 15.2169Z" fill="#1C180D"/>
</g>
<defs>
<clipPath id="clip0_738_71">
<rect width="24" height="24" fill="white"/>
</clipPath>
</defs>
</svg>
