<svg xmlns="http://www.w3.org/2000/svg" width="24" height="24" fill="none" viewBox="0 0 24 24" class="web3icons">
    <path fill="#fff" d="M5.104 21h.399c.072 0 .145-.036.169-.096 3.009-7.632 6.283-11.412 8.337-13.675.085-.097.049-.169-.072-.169h-3.673a.42.42 0 0 0-.339.169l-2.634 3.25c-.387.481-.483.927-.483 1.565v3.322c-.858 2.396-1.402 4.02-1.8 5.49-.025.093.011.144.096.144M18.359 3.485c-.568-.602-3.13-.626-4.314-.169a2.3 2.3 0 0 0-.592.35 31 31 0 0 0-2.5 2.383c-.085.084-.05.168.072.168h4.072c.374 0 .592.217.592.59v4.575c0 .12.097.156.169.048l2.453-3.19c.399-.518.52-.674.628-1.397.145-1.059.06-2.684-.58-3.358m-5.256 12.134 1.68-2.757a.5.5 0 0 0 .048-.216V8.047c0-.12-.085-.168-.17-.072-2.525 2.805-4.494 5.754-6.319 9.305-.046.09.012.169.121.133l3.77-1.156c.425-.13.665-.3.87-.638"/>
</svg>
