<svg width="24" height="24" viewBox="0 0 24 24" fill="none" xmlns="http://www.w3.org/2000/svg">
<g clip-path="url(#clip0_738_100)">
<path d="M24 0H0V24H24V0Z" fill="#30A1F5"/>
<path fill-rule="evenodd" clip-rule="evenodd" d="M14.7391 5.5H9.25818C8.52863 5.5 8.16385 5.5 7.83408 5.59756C7.54186 5.68498 7.27068 5.8276 7.03636 6.01707C6.77199 6.23171 6.57578 6.52705 6.17968 7.11774L4.44054 9.72706C4.17986 10.1173 4.04905 10.3124 4.01405 10.5182C3.98297 10.6993 4.00367 10.8851 4.07392 11.0557C4.15406 11.2499 4.32448 11.414 4.6653 11.7421L11.1373 17.9736C11.4395 18.2646 11.5905 18.4091 11.7637 18.4641C11.917 18.512 12.0821 18.512 12.2354 18.4641C12.4095 18.4091 12.5605 18.2637 12.8617 17.9736L19.3347 11.7421C19.6755 11.414 19.8459 11.2499 19.9261 11.0557C19.9963 10.8851 20.017 10.6993 19.986 10.5182C19.95 10.3124 19.8201 10.1173 19.5595 9.72706L17.8157 7.11774C17.4215 6.52705 17.2234 6.23082 16.959 6.01796C16.725 5.82859 16.4541 5.68598 16.1622 5.59845C15.8325 5.50089 15.4677 5.50089 14.7381 5.50089M13.7009 7.55854C13.7205 7.50747 13.7558 7.4634 13.8022 7.43227C13.8485 7.40115 13.9037 7.38446 13.9602 7.38446C14.0167 7.38446 14.0719 7.40115 14.1183 7.43227C14.1646 7.4634 14.2 7.50747 14.2195 7.55854L14.8349 9.15943C14.8717 9.25611 14.95 9.33149 15.0504 9.36697L16.7131 9.95943C16.7661 9.97825 16.8119 10.0123 16.8442 10.0569C16.8766 10.1016 16.8939 10.1547 16.8939 10.2091C16.8939 10.2635 16.8766 10.3166 16.8442 10.3613C16.8119 10.4059 16.7661 10.44 16.7131 10.4588L15.0504 11.0512C15.0012 11.069 14.9565 11.0967 14.9193 11.1325C14.8821 11.1683 14.8533 11.2114 14.8349 11.2588L14.2195 12.8597C14.2 12.9107 14.1646 12.9548 14.1183 12.9859C14.0719 13.0171 14.0167 13.0337 13.9602 13.0337C13.9037 13.0337 13.8485 13.0171 13.8022 12.9859C13.7558 12.9548 13.7205 12.9107 13.7009 12.8597L13.0856 11.2588C13.0671 11.2114 13.0383 11.1683 13.0011 11.1325C12.964 11.0967 12.9193 11.069 12.87 11.0512L11.2073 10.4588C11.1543 10.44 11.1085 10.4059 11.0762 10.3613C11.0439 10.3166 11.0265 10.2635 11.0265 10.2091C11.0265 10.1547 11.0439 10.1016 11.0762 10.0569C11.1085 10.0123 11.1543 9.97825 11.2073 9.95943L12.87 9.36697C12.9193 9.34919 12.964 9.32147 13.0011 9.28567C13.0383 9.24987 13.0671 9.20683 13.0856 9.15943L13.7009 7.55854Z" fill="white"/>
</g>
<defs>
<clipPath id="clip0_738_100">
<rect width="24" height="24" fill="white"/>
</clipPath>
</defs>
</svg>
