<svg xmlns="http://www.w3.org/2000/svg" width="24" height="24" fill="none" viewBox="0 0 24 24" class="web3icons">
    <g clip-path="url(#robinhood__a)">
        <path fill="#CF0" d="M24 0H0v24h24z"/>
        <path fill="#1C180D" d="M5.597 20h.37c.067 0 .134-.032.157-.086C8.918 13.13 11.958 9.77 13.866 7.76c.078-.086.045-.15-.068-.15h-3.41a.4.4 0 0 0-.315.15l-2.446 2.889c-.359.428-.448.824-.448 1.39v2.954c-.797 2.13-1.302 3.574-1.672 4.88-.023.083.011.128.09.128M17.905 4.43c-.527-.534-2.906-.555-4.006-.149a2.2 2.2 0 0 0-.55.31 28 28 0 0 0-2.322 2.12c-.079.074-.045.149.067.149h3.782c.347 0 .55.193.55.524v4.066c0 .107.09.14.156.043l2.278-2.835c.37-.46.483-.6.584-1.242.134-.941.056-2.386-.54-2.985m-4.88 10.787 1.559-2.45a.4.4 0 0 0 .045-.193V8.486c0-.107-.079-.15-.157-.064-2.345 2.493-4.174 5.115-5.868 8.272-.043.079.01.15.112.117l3.5-1.027c.395-.116.618-.268.808-.567"/>
    </g>
    <defs>
        <clipPath id="robinhood__a">
            <path fill="#fff" d="M0 0h24v24H0z"/>
        </clipPath>
    </defs>
</svg>
