<svg width="24" height="24" viewBox="0 0 24 24" fill="none" xmlns="http://www.w3.org/2000/svg">
<path fill-rule="evenodd" clip-rule="evenodd" d="M15.0814 5H8.91546C8.09471 5 7.68433 5 7.31334 5.10507C6.9846 5.19921 6.67951 5.3528 6.4159 5.55685C6.11848 5.78799 5.89775 6.10606 5.45214 6.74218L3.49561 9.55222C3.20234 9.97248 3.05518 10.1826 3.0158 10.4042C2.98085 10.5992 3.00413 10.7993 3.08316 10.983C3.17332 11.1922 3.36504 11.3689 3.74847 11.7223L11.0295 18.4332C11.3694 18.7464 11.5394 18.9021 11.7342 18.9613C11.9066 19.0129 12.0923 19.0129 12.2648 18.9613C12.4606 18.9021 12.6306 18.7455 12.9695 18.4332L20.2515 11.7223C20.635 11.3689 20.8267 11.1922 20.9168 10.983C20.9959 10.7993 21.0192 10.5992 20.9842 10.4042C20.9438 10.1826 20.7977 9.97248 20.5044 9.55222L18.5427 6.74218C18.0991 6.10606 17.8763 5.78704 17.5789 5.5578C17.3156 5.35386 17.0109 5.20028 16.6825 5.10602C16.3115 5.00095 15.9011 5.00096 15.0804 5.00096M13.9135 7.21689C13.9355 7.16189 13.9753 7.11443 14.0274 7.08091C14.0796 7.04739 14.1417 7.02941 14.2052 7.02941C14.2688 7.02941 14.3309 7.04739 14.3831 7.08091C14.4352 7.11443 14.475 7.16189 14.497 7.21689L15.1892 8.94093C15.2307 9.04504 15.3187 9.12622 15.4317 9.16443L17.3022 9.80247C17.3619 9.82273 17.4134 9.85937 17.4498 9.90745C17.4861 9.95553 17.5056 10.0127 17.5056 10.0713C17.5056 10.13 17.4861 10.1872 17.4498 10.2352C17.4134 10.2833 17.3619 10.3199 17.3022 10.3402L15.4317 10.9783C15.3763 10.9974 15.326 11.0273 15.2842 11.0658C15.2424 11.1044 15.21 11.1507 15.1892 11.2018L14.497 12.9258C14.475 12.9808 14.4352 13.0282 14.3831 13.0618C14.3309 13.0953 14.2688 13.1133 14.2052 13.1133C14.1417 13.1133 14.0796 13.0953 14.0274 13.0618C13.9753 13.0282 13.9355 12.9808 13.9135 12.9258L13.2213 11.2018C13.2005 11.1507 13.1681 11.1044 13.1263 11.0658C13.0845 11.0273 13.0342 10.9974 12.9788 10.9783L11.1083 10.3402C11.0486 10.3199 10.9971 10.2833 10.9607 10.2352C10.9244 10.1872 10.9049 10.13 10.9049 10.0713C10.9049 10.0127 10.9244 9.95553 10.9607 9.90745C10.9971 9.85937 11.0486 9.82273 11.1083 9.80247L12.9788 9.16443C13.0342 9.14528 13.0845 9.11543 13.1263 9.07688C13.1681 9.03833 13.2005 8.99197 13.2213 8.94093L13.9135 7.21689Z" fill="#30A1F5"/>
</svg>
