<svg width="24" height="24" viewBox="0 0 24 24" fill="none" xmlns="http://www.w3.org/2000/svg">
<g clip-path="url(#clip0_738_122)">
<path d="M24 0H0V24H24V0Z" fill="#0EAD98"/>
<path d="M12.2377 20C7.69495 20 4 16.4094 4 12C4 7.59059 7.69495 4 12.2377 4C15.3936 4 18.3093 5.78824 19.6717 8.5506L20 9.21414L17.6968 11.4494L16.163 9.98118L17.3586 8.81881C16.2512 7.13883 14.3155 6.0847 12.2377 6.0847C8.89064 6.0847 6.166 8.73885 6.166 11.9953C6.166 15.2518 8.89064 17.9059 12.2377 17.9059C14.3155 17.9059 16.2512 16.8518 17.3586 15.1718L13.159 11.0871C12.9139 10.8471 12.5856 10.7153 12.2377 10.7153C11.8897 10.7153 11.5663 10.8471 11.3164 11.0871C10.8018 11.5859 10.8018 12.3953 11.3164 12.8941C11.5614 13.1341 11.8897 13.2659 12.2377 13.2659C12.5856 13.2659 12.909 13.1341 13.159 12.8941L13.5314 12.5271L15.0702 13.9953L14.6928 14.3624C14.0362 15.0024 13.1639 15.3506 12.2377 15.3506C11.3115 15.3506 10.4392 14.9977 9.78256 14.3624C8.43492 13.0541 8.43492 10.9223 9.78256 9.61412C10.4392 8.97884 11.3066 8.62587 12.2377 8.62587C13.1639 8.62587 14.0362 8.97884 14.6928 9.61412L20 14.7717L19.6717 15.4353C18.3093 18.2117 15.3887 20 12.2377 20Z" fill="white"/>
</g>
<defs>
<clipPath id="clip0_738_122">
<rect width="24" height="24" fill="white"/>
</clipPath>
</defs>
</svg>
