<svg width="24" height="24" viewBox="0 0 24 24" fill="none" xmlns="http://www.w3.org/2000/svg">
<path d="M5.10401 21H5.50276C5.57526 21 5.64775 20.9639 5.67192 20.9037C8.68061 13.2716 11.9551 9.49174 14.0093 7.22861C14.0938 7.1323 14.0576 7.06008 13.9368 7.06008H10.2635C10.1306 7.06008 10.0182 7.11304 9.92517 7.22861L7.29106 10.4788C6.9044 10.9604 6.80773 11.4058 6.80773 12.0438V15.3662C5.94983 17.7618 5.40609 19.3869 5.00735 20.8555C4.98318 20.9494 5.01943 21 5.10401 21ZM18.3592 3.48481C17.7913 2.88291 15.2297 2.85884 14.0455 3.31628C13.799 3.41138 13.5622 3.57269 13.4534 3.66538C12.366 4.5923 11.641 5.32661 10.9522 6.04889C10.8677 6.13315 10.9039 6.21742 11.0247 6.21742H15.0967C15.4713 6.21742 15.6888 6.4341 15.6888 6.80728V11.3817C15.6888 11.5021 15.7855 11.5382 15.858 11.4298L18.3108 8.23979C18.7096 7.72216 18.8304 7.56567 18.9392 6.84339C19.0842 5.78405 18.9996 4.15893 18.3592 3.48481ZM13.103 15.619L14.7826 12.8624C14.8188 12.7901 14.8309 12.7059 14.8309 12.6457V8.04719C14.8309 7.92681 14.7463 7.87865 14.6617 7.97496C12.1364 10.7798 10.1668 13.7291 8.34229 17.2803C8.29637 17.3694 8.35437 17.4488 8.46312 17.4127L12.233 16.2571C12.6584 16.127 12.8976 15.9561 13.103 15.619Z" fill="#CCFF00"/>
</svg>
